<svg width="32" height="32" viewBox="0 0 32 32" fill="none" xmlns="http://www.w3.org/2000/svg">
  <!-- Cloudflare orange background circle -->
  <circle cx="16" cy="16" r="16" fill="#F38020"/>

  <!-- .NET inspired design - hexagon shape -->
  <path d="M16 4 L26 10 L26 22 L16 28 L6 22 L6 10 Z" fill="white" opacity="0.15"/>

  <!-- Cloudflare cloud icon simplified -->
  <path d="M22 13.5 C22 12.5 21.5 11.5 20.5 11 C20.5 10.5 20.3 10 20 9.5 C19.5 9 18.8 8.5 18 8.5 C17 8.5 16.2 9 15.8 9.8 C15.5 9.7 15.2 9.5 15 9.5 C13.5 9.5 12.5 10.5 12.5 12 C11.5 12.2 10.5 13 10.5 14.5 C10.5 16 11.5 17 13 17 L21 17 C22 17 22.5 16.5 22.5 15.5 C22.5 14.5 22 13.8 22 13.5 Z" fill="white"/>

  <!-- .NET text -->
  <text x="16" y="25" font-family="Arial, sans-serif" font-size="7" font-weight="bold" fill="white" text-anchor="middle">.NET</text>
</svg>
